<?xml version="1.0" standalone="no"?>
<!DOCTYPE svg PUBLIC "-//W3C//DTD SVG 20010904//EN"
 "http://www.w3.org/TR/2001/REC-SVG-20010904/DTD/svg10.dtd">
<svg version="1.0" xmlns="http://www.w3.org/2000/svg"
 width="256.000000pt" height="256.000000pt" viewBox="0 0 256.000000 256.000000"
 preserveAspectRatio="xMidYMid meet">
<metadata>
Created by potrace 1.11, written by Peter Selinger 2001-2013
</metadata>
<g transform="translate(0.000000,256.000000) scale(0.100000,-0.100000)"
fill="#000000" stroke="none">
<path d="M1117 2134 c-330 -60 -609 -331 -684 -668 -22 -99 -22 -271 0 -371
23 -102 110 -279 180 -365 75 -93 166 -162 292 -224 142 -71 231 -91 390 -89
245 3 444 90 616 270 124 130 194 267 224 439 50 287 -37 564 -241 768 -205
205 -488 292 -777 240z m244 -585 c49 -17 85 -55 97 -102 18 -67 9 -275 -12
-319 -44 -91 -210 -106 -284 -26 -59 64 -56 346 4 409 43 44 126 61 195 38z
m226 -4 c20 -14 45 -80 66 -170 5 -20 5 -20 6 1 2 31 42 147 56 163 19 19 62
17 86 -5 29 -26 22 -62 -35 -204 -39 -97 -46 -127 -46 -182 0 -58 -3 -69 -22
-82 -32 -22 -55 -20 -83 9 -21 21 -25 33 -25 89 0 55 -8 85 -51 193 -56 139
-57 166 -9 190 32 16 31 16 57 -2z m-572 -11 c63 -30 85 -154 35 -199 -20 -18
-19 -18 5 -43 41 -41 45 -124 9 -180 -24 -37 -73 -52 -173 -52 -85 0 -91 1
-110 26 -20 25 -21 40 -21 221 0 193 0 194 25 218 22 23 32 25 111 25 58 0 97
-5 119 -16z"/>
<path d="M1267 1434 c-4 -4 -7 -63 -7 -130 0 -110 2 -124 19 -133 13 -7 23 -7
35 2 14 10 16 30 14 137 l-3 125 -25 3 c-14 2 -29 0 -33 -4z"/>
</g>
</svg>
